# xmcd
#
# Track frame offsets:
#	150
#	14645
#	28807
#	41915
#	55825
#	68475
#	82362
#	95120
#	110132
#	124785
#	137477
#	150705
#	163347
#	176450
#	190342
#	204170
#	216915
#	231565
#	244430
#	259320
#	271860
#	284197
#
# Disc length: 3953 seconds
#
# Revision: 1
# Processed by: cddbd v1.5PL3 Copyright (c) Steve Scherf et al.
# Submitted via: audiograbber 1.81.03
#
DISCID=610f6f16
DTITLE=Tampa Red - Completed Recorded Works in Chronological Order Vol. 10
DYEAR=1938
DGENRE=Blues
TTITLE0=When Bad Luck is on You
TTITLE1=When I Had a Good Woman (You Keep on Doggin' Me)
TTITLE2=Mr. Rhythm Man
TTITLE3=Just You and I Alone
TTITLE4=Checkin' Up on You
TTITLE5=Oh Yes My Darling
TTITLE6=Forgive Me Please
TTITLE7=Blues for My Baby
TTITLE8=Hellish Old Feeling
TTITLE9=She got the Best in Town
TTITLE10=You Say its Love
TTITLE11=Bessemer Blues
TTITLE12=Please don't Throw Me Down
TTITLE13=Sad Letter Blues
TTITLE14=Booze Head Woman
TTITLE15=If I had Known
TTITLE16=You Got to Give Me Some
TTITLE17=Poor Old Gal Blues
TTITLE18=No Good Woman Blues
TTITLE19=Nobody Knows How Bad I Feel
TTITLE20=Ready for Rhythm
TTITLE21=I Got a Big Surprise for You
EXTD=DOCD-5210  16 June 1938 to November 1939
EXTT0=
EXTT1=
EXTT2=
EXTT3=
EXTT4=
EXTT5=
EXTT6=
EXTT7=
EXTT8=
EXTT9=
EXTT10=
EXTT11=
EXTT12=
EXTT13=
EXTT14=
EXTT15=
EXTT16=
EXTT17=
EXTT18=
EXTT19=
EXTT20=
EXTT21=
PLAYORDER=
